%FSLAX23Y23*%
%MOIN*%
G70*
G01*
G75*
G04 Layer_Color=8388736*
%ADD10R,0.118X0.059*%
%ADD11R,0.118X0.039*%
%ADD12R,0.031X0.035*%
%ADD13C,0.010*%
%ADD14O,0.079X0.039*%
%ADD15O,0.079X0.039*%
%ADD16C,0.236*%
%ADD17C,0.039*%
%ADD18C,0.031*%
%ADD19C,0.008*%
%ADD20C,0.000*%
%ADD21C,0.004*%
%ADD22R,0.050X0.045*%
%ADD23C,0.020*%
%ADD24C,0.059*%
%ADD25R,0.126X0.067*%
%ADD26R,0.126X0.047*%
%ADD27R,0.039X0.043*%
%ADD28O,0.087X0.047*%
%ADD29O,0.087X0.047*%
D13*
X336Y63D02*
X330Y69D01*
X317D01*
X310Y63D01*
Y56D01*
X317Y50D01*
X330D01*
X336Y43D01*
Y37D01*
X330Y30D01*
X317D01*
X310Y37D01*
X369Y30D02*
X356D01*
X349Y37D01*
Y50D01*
X356Y56D01*
X369D01*
X376Y50D01*
Y43D01*
X349D01*
X389Y30D02*
Y56D01*
X408D01*
X415Y50D01*
Y30D01*
X428D02*
X448D01*
X454Y37D01*
X448Y43D01*
X435D01*
X428Y50D01*
X435Y56D01*
X454D01*
X474Y30D02*
X487D01*
X494Y37D01*
Y50D01*
X487Y56D01*
X474D01*
X467Y50D01*
Y37D01*
X474Y30D01*
X507Y56D02*
Y30D01*
Y43D01*
X513Y50D01*
X520Y56D01*
X526D01*
X315Y119D02*
Y80D01*
X341D01*
X354D02*
Y119D01*
X367Y106D01*
X381Y119D01*
Y80D01*
X394Y113D02*
X400Y119D01*
X413D01*
X420Y113D01*
Y106D01*
X413Y100D01*
X407D01*
X413D01*
X420Y93D01*
Y87D01*
X413Y80D01*
X400D01*
X394Y87D01*
X459Y119D02*
X433D01*
Y100D01*
X446Y106D01*
X453D01*
X459Y100D01*
Y87D01*
X453Y80D01*
X440D01*
X433Y87D01*
X512Y119D02*
X538D01*
X525D01*
Y80D01*
X571D02*
X558D01*
X551Y87D01*
Y100D01*
X558Y106D01*
X571D01*
X577Y100D01*
Y93D01*
X551D01*
X591Y80D02*
Y106D01*
X597D01*
X604Y100D01*
Y80D01*
Y100D01*
X610Y106D01*
X617Y100D01*
Y80D01*
X630Y67D02*
Y106D01*
X650D01*
X656Y100D01*
Y87D01*
X650Y80D01*
X630D01*
X689D02*
X676D01*
X669Y87D01*
Y100D01*
X676Y106D01*
X689D01*
X695Y100D01*
Y93D01*
X669D01*
X709Y106D02*
Y80D01*
Y93D01*
X715Y100D01*
X722Y106D01*
X728D01*
X754D02*
X768D01*
X774Y100D01*
Y80D01*
X754D01*
X748Y87D01*
X754Y93D01*
X774D01*
X794Y113D02*
Y106D01*
X787D01*
X800D01*
X794D01*
Y87D01*
X800Y80D01*
X820Y106D02*
Y87D01*
X827Y80D01*
X846D01*
Y106D01*
X859D02*
Y80D01*
Y93D01*
X866Y100D01*
X873Y106D01*
X879D01*
X918Y80D02*
X905D01*
X899Y87D01*
Y100D01*
X905Y106D01*
X918D01*
X925Y100D01*
Y93D01*
X899D01*
D16*
X160Y645D02*
D03*
Y165D02*
D03*
D17*
X249Y645D02*
D03*
X223Y582D02*
D03*
X160Y556D02*
D03*
X97Y582D02*
D03*
X71Y645D02*
D03*
X160Y734D02*
D03*
X223Y708D02*
D03*
X97D02*
D03*
Y228D02*
D03*
X223D02*
D03*
X160Y254D02*
D03*
X71Y165D02*
D03*
X97Y102D02*
D03*
X160Y76D02*
D03*
X223Y102D02*
D03*
X249Y165D02*
D03*
D23*
X540Y670D02*
G03*
X540Y670I-10J0D01*
G01*
D24*
X249Y645D02*
G03*
X249Y645I-89J0D01*
G01*
Y165D02*
G03*
X249Y165I-89J0D01*
G01*
D25*
X1212Y240D02*
D03*
Y570D02*
D03*
D26*
X1015Y484D02*
D03*
Y326D02*
D03*
Y405D02*
D03*
Y484D02*
D03*
D27*
X698Y580D02*
D03*
X642D02*
D03*
X687Y225D02*
D03*
X743D02*
D03*
D28*
X385Y465D02*
D03*
Y415D02*
D03*
D29*
Y365D02*
D03*
M02*
