%FSLAX23Y23*%
%MOIN*%
G70*
G01*
G75*
%ADD10C,0.004*%
%ADD11C,0.005*%
%ADD12C,0.007*%
D10*
X636Y561D02*
X704D01*
X636Y599D02*
X704D01*
Y561D02*
Y599D01*
X636Y561D02*
Y599D01*
X681Y244D02*
X749D01*
X681Y206D02*
X749D01*
X681D02*
Y244D01*
X749Y206D02*
Y244D01*
X365Y415D02*
X405D01*
X385Y395D02*
Y435D01*
X670Y561D02*
Y599D01*
X651Y580D02*
X689D01*
X623Y558D02*
X717D01*
X623Y602D02*
X717D01*
Y558D02*
Y602D01*
X623Y558D02*
Y602D01*
X715Y206D02*
Y244D01*
X696Y225D02*
X734D01*
X668Y247D02*
X762D01*
X668Y203D02*
X762D01*
X668D02*
Y247D01*
X762Y203D02*
Y247D01*
D11*
X371Y465D02*
X399D01*
X385Y451D02*
Y479D01*
X371Y415D02*
X399D01*
X385Y401D02*
Y429D01*
X371Y365D02*
X399D01*
X385Y351D02*
Y379D01*
X101Y645D02*
X219D01*
X160Y586D02*
Y704D01*
X239Y645D02*
X258D01*
X249Y635D02*
Y655D01*
X213Y582D02*
X232D01*
X223Y573D02*
Y592D01*
X150Y556D02*
X170D01*
X160Y547D02*
Y566D01*
X88Y582D02*
X107D01*
X97Y573D02*
Y592D01*
X62Y645D02*
X81D01*
X71Y635D02*
Y655D01*
X150Y734D02*
X170D01*
X160Y724D02*
Y743D01*
X213Y708D02*
X232D01*
X223Y698D02*
Y717D01*
X88Y708D02*
X107D01*
X97Y698D02*
Y717D01*
X88Y228D02*
X107D01*
X97Y218D02*
Y237D01*
X213Y228D02*
X232D01*
X223Y218D02*
Y237D01*
X150Y254D02*
X170D01*
X160Y244D02*
Y263D01*
X62Y165D02*
X81D01*
X71Y155D02*
Y175D01*
X88Y102D02*
X107D01*
X97Y93D02*
Y112D01*
X150Y76D02*
X170D01*
X160Y67D02*
Y86D01*
X213Y102D02*
X232D01*
X223Y93D02*
Y112D01*
X239Y165D02*
X258D01*
X249Y155D02*
Y175D01*
X101Y165D02*
X219D01*
X160Y106D02*
Y224D01*
M02*
