%FSLAX23Y23*%
%MOIN*%
G70*
G01*
G75*
%ADD10R,0.118X0.059*%
%ADD11R,0.118X0.039*%
%ADD12R,0.031X0.035*%
%ADD13C,0.010*%
%ADD14O,0.079X0.039*%
%ADD15O,0.079X0.039*%
%ADD16C,0.236*%
%ADD17C,0.039*%
%ADD18C,0.031*%
%ADD19C,0.008*%
%ADD20C,0.000*%
%ADD21C,0.004*%
%ADD22R,0.050X0.045*%
D13*
X1065Y730D02*
G03*
X1065Y695I0J-18D01*
G01*
Y695D02*
X1150D01*
X1065Y730D02*
X1150D01*
X1015Y205D02*
X1270D01*
X1015D02*
Y600D01*
X1020Y605D01*
X1270D01*
Y205D02*
Y605D01*
D18*
X1236Y715D02*
G03*
X1236Y715I-16J0D01*
G01*
D19*
X332Y339D02*
G03*
X332Y491I53J76D01*
G01*
X332Y339D02*
Y346D01*
X332Y484D02*
Y491D01*
D20*
X1235Y35D02*
Y185D01*
X1235Y35D02*
Y185D01*
X1235Y35D02*
Y185D01*
X1235Y35D02*
Y185D01*
X1234Y35D02*
Y185D01*
X1234Y35D02*
Y185D01*
X1234Y35D02*
Y185D01*
X1233Y35D02*
Y185D01*
X1233Y35D02*
Y185D01*
X1233Y35D02*
Y185D01*
X1232Y35D02*
Y185D01*
X1232Y35D02*
Y185D01*
X1232Y35D02*
Y185D01*
X1232Y35D02*
Y185D01*
X1231Y35D02*
Y185D01*
X1231Y35D02*
Y185D01*
X1231Y35D02*
Y185D01*
X1230Y35D02*
Y185D01*
X1230Y35D02*
Y185D01*
X1230Y35D02*
Y185D01*
X1229Y35D02*
Y185D01*
X1229Y35D02*
Y185D01*
X1229Y35D02*
Y185D01*
X1229Y35D02*
Y185D01*
X1228Y35D02*
Y185D01*
X1228Y35D02*
Y185D01*
X1228Y35D02*
Y185D01*
X1227Y35D02*
Y185D01*
X1227Y35D02*
Y185D01*
X1227Y35D02*
Y185D01*
X1226Y35D02*
Y185D01*
X1226Y35D02*
Y185D01*
X1226Y35D02*
Y185D01*
X1225Y35D02*
Y185D01*
X1225Y35D02*
Y185D01*
X1225Y35D02*
Y185D01*
X1225Y35D02*
Y185D01*
X1224Y35D02*
Y185D01*
X1224Y35D02*
Y185D01*
X1224Y35D02*
Y185D01*
X1223Y35D02*
Y185D01*
X1223Y35D02*
Y185D01*
X1223Y35D02*
Y185D01*
X1222Y35D02*
Y185D01*
X1222Y35D02*
Y185D01*
X1222Y35D02*
Y185D01*
X1222Y35D02*
Y185D01*
X1221Y35D02*
Y185D01*
X1221Y35D02*
Y185D01*
X1221Y35D02*
Y185D01*
X1220Y35D02*
Y185D01*
X1220Y35D02*
Y185D01*
X1220Y35D02*
Y185D01*
X1219Y35D02*
Y185D01*
X1219Y35D02*
Y185D01*
X1219Y35D02*
Y185D01*
X1219Y172D02*
Y185D01*
Y83D02*
Y171D01*
Y48D02*
Y81D01*
Y35D02*
Y46D01*
X1218Y172D02*
Y185D01*
Y83D02*
Y171D01*
Y48D02*
Y81D01*
Y35D02*
Y46D01*
X1218Y171D02*
Y185D01*
Y83D02*
Y125D01*
Y35D02*
Y46D01*
X1218Y171D02*
Y185D01*
Y83D02*
Y125D01*
Y35D02*
Y46D01*
X1217Y173D02*
Y185D01*
Y83D02*
Y125D01*
Y35D02*
Y46D01*
X1217Y173D02*
Y185D01*
Y83D02*
Y125D01*
Y35D02*
Y46D01*
X1217Y172D02*
Y185D01*
Y170D02*
Y171D01*
Y82D02*
Y125D01*
Y35D02*
Y47D01*
X1217Y172D02*
Y185D01*
Y170D02*
Y171D01*
Y82D02*
Y125D01*
Y35D02*
Y47D01*
X1216Y171D02*
Y185D01*
Y170D02*
Y171D01*
Y83D02*
Y125D01*
Y35D02*
Y46D01*
X1216Y169D02*
Y185D01*
Y78D02*
Y131D01*
Y35D02*
Y49D01*
X1216Y169D02*
Y185D01*
Y78D02*
Y131D01*
Y35D02*
Y49D01*
X1215Y165D02*
Y185D01*
Y75D02*
Y132D01*
Y35D02*
Y51D01*
X1215Y165D02*
Y185D01*
Y75D02*
Y132D01*
Y35D02*
Y51D01*
X1215Y164D02*
Y185D01*
Y73D02*
Y134D01*
Y35D02*
Y52D01*
X1214Y164D02*
Y185D01*
Y73D02*
Y134D01*
Y35D02*
Y52D01*
X1214Y164D02*
Y185D01*
Y72D02*
Y134D01*
Y35D02*
Y54D01*
X1214Y164D02*
Y185D01*
Y72D02*
Y134D01*
Y35D02*
Y54D01*
X1214Y162D02*
Y185D01*
Y72D02*
Y135D01*
Y35D02*
Y54D01*
X1213Y162D02*
Y185D01*
Y72D02*
Y135D01*
Y35D02*
Y54D01*
X1213Y162D02*
Y185D01*
Y71D02*
Y137D01*
Y35D02*
Y56D01*
X1213Y162D02*
Y185D01*
Y71D02*
Y137D01*
Y35D02*
Y56D01*
X1212Y161D02*
Y185D01*
Y70D02*
Y136D01*
Y35D02*
Y56D01*
X1212Y161D02*
Y185D01*
Y70D02*
Y136D01*
Y35D02*
Y56D01*
X1212Y160D02*
Y185D01*
Y70D02*
Y137D01*
Y35D02*
Y56D01*
X1211Y160D02*
Y185D01*
Y70D02*
Y138D01*
Y35D02*
Y58D01*
X1211Y160D02*
Y185D01*
Y70D02*
Y138D01*
Y35D02*
Y58D01*
X1211Y159D02*
Y185D01*
Y69D02*
Y137D01*
Y35D02*
Y58D01*
X1211Y159D02*
Y185D01*
Y69D02*
Y137D01*
Y35D02*
Y58D01*
X1210Y159D02*
Y185D01*
Y69D02*
Y137D01*
Y35D02*
Y59D01*
X1210Y159D02*
Y185D01*
Y69D02*
Y137D01*
Y35D02*
Y59D01*
X1210Y159D02*
Y185D01*
Y70D02*
Y137D01*
Y35D02*
Y58D01*
X1209Y159D02*
Y185D01*
Y70D02*
Y137D01*
Y35D02*
Y58D01*
X1209Y159D02*
Y185D01*
Y69D02*
Y137D01*
Y35D02*
Y59D01*
X1209Y159D02*
Y185D01*
Y69D02*
Y137D01*
Y35D02*
Y59D01*
X1208Y157D02*
Y185D01*
Y68D02*
Y137D01*
Y35D02*
Y59D01*
X1208Y157D02*
Y185D01*
Y68D02*
Y137D01*
Y35D02*
Y59D01*
X1208Y158D02*
Y185D01*
Y69D02*
Y138D01*
Y35D02*
Y59D01*
X1207Y158D02*
Y185D01*
Y69D02*
Y138D01*
Y35D02*
Y59D01*
X1207Y157D02*
Y185D01*
Y70D02*
Y137D01*
Y35D02*
Y60D01*
X1207Y156D02*
Y185D01*
Y69D02*
Y139D01*
Y35D02*
Y60D01*
X1207Y156D02*
Y185D01*
Y69D02*
Y139D01*
Y35D02*
Y60D01*
X1206Y155D02*
Y185D01*
Y70D02*
Y137D01*
Y35D02*
Y61D01*
X1206Y155D02*
Y185D01*
Y70D02*
Y137D01*
Y35D02*
Y61D01*
X1206Y156D02*
Y185D01*
Y69D02*
Y138D01*
Y35D02*
Y60D01*
X1205Y156D02*
Y185D01*
Y69D02*
Y138D01*
Y35D02*
Y60D01*
X1205Y155D02*
Y185D01*
Y69D02*
Y137D01*
Y35D02*
Y61D01*
X1205Y155D02*
Y185D01*
Y69D02*
Y137D01*
Y35D02*
Y61D01*
X1204Y156D02*
Y185D01*
Y70D02*
Y137D01*
Y35D02*
Y62D01*
X1204Y156D02*
Y185D01*
Y70D02*
Y137D01*
Y35D02*
Y62D01*
X1204Y156D02*
Y185D01*
Y70D02*
Y137D01*
Y35D02*
Y61D01*
X1204Y156D02*
Y185D01*
Y70D02*
Y137D01*
Y35D02*
Y61D01*
X1203Y155D02*
Y185D01*
Y70D02*
Y137D01*
Y35D02*
Y63D01*
X1203Y155D02*
Y185D01*
Y70D02*
Y137D01*
Y35D02*
Y63D01*
X1203Y155D02*
Y185D01*
Y69D02*
Y136D01*
Y35D02*
Y63D01*
X1202Y155D02*
Y185D01*
Y70D02*
Y137D01*
Y35D02*
Y62D01*
X1202Y155D02*
Y185D01*
Y70D02*
Y137D01*
Y35D02*
Y62D01*
X1202Y154D02*
Y185D01*
Y70D02*
Y136D01*
Y35D02*
Y63D01*
X1202Y154D02*
Y185D01*
Y70D02*
Y136D01*
Y35D02*
Y63D01*
X1201Y152D02*
Y185D01*
Y72D02*
Y135D01*
Y35D02*
Y63D01*
X1201Y152D02*
Y185D01*
Y72D02*
Y135D01*
Y35D02*
Y63D01*
X1201Y154D02*
Y185D01*
Y71D02*
Y137D01*
Y35D02*
Y63D01*
X1200Y154D02*
Y185D01*
Y71D02*
Y137D01*
Y35D02*
Y63D01*
X1200Y154D02*
Y185D01*
Y71D02*
Y136D01*
Y35D02*
Y64D01*
X1200Y154D02*
Y185D01*
Y71D02*
Y136D01*
Y35D02*
Y64D01*
X1199Y154D02*
Y185D01*
Y72D02*
Y135D01*
Y35D02*
Y64D01*
X1199Y154D02*
Y185D01*
Y72D02*
Y135D01*
Y35D02*
Y64D01*
X1199Y153D02*
Y185D01*
Y72D02*
Y136D01*
Y35D02*
Y65D01*
X1199Y153D02*
Y185D01*
Y72D02*
Y134D01*
Y35D02*
Y64D01*
X1198Y153D02*
Y185D01*
Y72D02*
Y134D01*
Y35D02*
Y64D01*
X1198Y152D02*
Y185D01*
Y72D02*
Y134D01*
Y35D02*
Y65D01*
X1198Y152D02*
Y185D01*
Y72D02*
Y134D01*
Y35D02*
Y65D01*
X1197Y152D02*
Y185D01*
Y72D02*
Y134D01*
Y35D02*
Y64D01*
X1197Y152D02*
Y185D01*
Y72D02*
Y134D01*
Y35D02*
Y64D01*
X1197Y151D02*
Y185D01*
Y72D02*
Y134D01*
Y35D02*
Y64D01*
X1196Y151D02*
Y185D01*
Y72D02*
Y134D01*
Y35D02*
Y64D01*
X1196Y152D02*
Y185D01*
Y73D02*
Y134D01*
Y35D02*
Y65D01*
X1196Y152D02*
Y185D01*
Y73D02*
Y134D01*
Y35D02*
Y65D01*
X1196Y152D02*
Y185D01*
Y72D02*
Y134D01*
Y35D02*
Y65D01*
X1195Y152D02*
Y185D01*
Y72D02*
Y134D01*
Y35D02*
Y65D01*
X1195Y151D02*
Y185D01*
Y74D02*
Y134D01*
Y35D02*
Y67D01*
X1195Y151D02*
Y185D01*
Y74D02*
Y134D01*
Y35D02*
Y67D01*
X1194Y151D02*
Y185D01*
Y73D02*
Y133D01*
Y35D02*
Y65D01*
X1194Y150D02*
Y185D01*
Y74D02*
Y133D01*
Y35D02*
Y66D01*
X1194Y150D02*
Y185D01*
Y74D02*
Y133D01*
Y35D02*
Y66D01*
X1193Y151D02*
Y185D01*
Y73D02*
Y134D01*
Y35D02*
Y67D01*
X1193Y151D02*
Y185D01*
Y73D02*
Y134D01*
Y35D02*
Y67D01*
X1193Y150D02*
Y185D01*
Y74D02*
Y132D01*
Y35D02*
Y68D01*
X1192Y150D02*
Y185D01*
Y74D02*
Y132D01*
Y35D02*
Y68D01*
X1192Y150D02*
Y185D01*
Y74D02*
Y133D01*
Y35D02*
Y67D01*
X1192Y150D02*
Y185D01*
Y74D02*
Y133D01*
Y35D02*
Y67D01*
X1192Y148D02*
Y185D01*
Y75D02*
Y132D01*
Y35D02*
Y67D01*
X1191Y148D02*
Y185D01*
Y75D02*
Y132D01*
Y35D02*
Y67D01*
X1191Y150D02*
Y185D01*
Y75D02*
Y132D01*
Y35D02*
Y67D01*
X1191Y150D02*
Y185D01*
Y75D02*
Y132D01*
Y35D02*
Y67D01*
X1190Y148D02*
Y185D01*
Y75D02*
Y132D01*
Y35D02*
Y68D01*
X1190Y148D02*
Y185D01*
Y75D02*
Y132D01*
Y35D02*
Y68D01*
X1190Y149D02*
Y185D01*
Y76D02*
Y132D01*
Y35D02*
Y68D01*
X1189Y149D02*
Y185D01*
Y76D02*
Y132D01*
Y35D02*
Y70D01*
X1189Y149D02*
Y185D01*
Y76D02*
Y132D01*
Y35D02*
Y70D01*
X1189Y148D02*
Y185D01*
Y77D02*
Y131D01*
Y35D02*
Y68D01*
X1189Y148D02*
Y185D01*
Y77D02*
Y131D01*
Y35D02*
Y68D01*
X1188Y147D02*
Y185D01*
Y76D02*
Y130D01*
Y35D02*
Y68D01*
X1188Y147D02*
Y185D01*
Y76D02*
Y130D01*
Y35D02*
Y68D01*
X1188Y148D02*
Y185D01*
Y77D02*
Y130D01*
Y35D02*
Y68D01*
X1187Y148D02*
Y185D01*
Y77D02*
Y130D01*
Y35D02*
Y68D01*
X1187Y148D02*
Y185D01*
Y76D02*
Y130D01*
Y35D02*
Y69D01*
X1187Y148D02*
Y185D01*
Y76D02*
Y130D01*
Y35D02*
Y69D01*
X1186Y148D02*
Y185D01*
Y77D02*
Y130D01*
Y35D02*
Y69D01*
X1186Y148D02*
Y185D01*
Y77D02*
Y130D01*
Y35D02*
Y69D01*
X1186Y147D02*
Y185D01*
Y77D02*
Y130D01*
Y35D02*
Y72D01*
X1186Y147D02*
Y185D01*
Y77D02*
Y130D01*
Y35D02*
Y72D01*
X1185Y147D02*
Y185D01*
Y78D02*
Y130D01*
Y35D02*
Y69D01*
X1185Y145D02*
Y185D01*
Y78D02*
Y129D01*
Y35D02*
Y69D01*
X1185Y145D02*
Y185D01*
Y78D02*
Y129D01*
Y35D02*
Y69D01*
X1184Y147D02*
Y185D01*
Y78D02*
Y130D01*
Y35D02*
Y70D01*
X1184Y147D02*
Y185D01*
Y78D02*
Y130D01*
Y35D02*
Y70D01*
X1184Y147D02*
Y185D01*
Y79D02*
Y129D01*
Y35D02*
Y71D01*
X1184Y147D02*
Y185D01*
Y79D02*
Y129D01*
Y35D02*
Y71D01*
X1183Y147D02*
Y185D01*
Y78D02*
Y128D01*
Y35D02*
Y70D01*
X1183Y147D02*
Y185D01*
Y78D02*
Y128D01*
Y35D02*
Y70D01*
X1183Y146D02*
Y185D01*
Y79D02*
Y128D01*
Y35D02*
Y71D01*
X1182Y146D02*
Y185D01*
Y79D02*
Y128D01*
Y35D02*
Y71D01*
X1182Y146D02*
Y185D01*
Y128D02*
Y130D01*
Y78D02*
Y128D01*
Y35D02*
Y71D01*
X1182Y146D02*
Y185D01*
Y128D02*
Y130D01*
Y78D02*
Y128D01*
Y35D02*
Y71D01*
X1181Y143D02*
Y185D01*
Y79D02*
Y128D01*
Y35D02*
Y71D01*
X1181Y146D02*
Y185D01*
Y80D02*
Y129D01*
Y35D02*
Y72D01*
X1181Y146D02*
Y185D01*
Y80D02*
Y129D01*
Y35D02*
Y72D01*
X1181Y146D02*
Y185D01*
Y79D02*
Y128D01*
Y35D02*
Y72D01*
X1180Y146D02*
Y185D01*
Y79D02*
Y128D01*
Y35D02*
Y72D01*
X1180Y145D02*
Y185D01*
Y80D02*
Y128D01*
Y35D02*
Y74D01*
X1180Y145D02*
Y185D01*
Y80D02*
Y128D01*
Y35D02*
Y74D01*
X1179Y145D02*
Y185D01*
Y35D02*
Y72D01*
X1179Y145D02*
Y185D01*
Y35D02*
Y72D01*
X1179Y145D02*
Y185D01*
Y35D02*
Y74D01*
X1178Y145D02*
Y185D01*
Y35D02*
Y74D01*
X1178Y144D02*
Y185D01*
Y35D02*
Y72D01*
X1178Y144D02*
Y185D01*
Y35D02*
Y72D01*
X1178Y144D02*
Y185D01*
Y35D02*
Y74D01*
X1177Y144D02*
Y185D01*
Y35D02*
Y74D01*
X1177Y143D02*
Y185D01*
Y35D02*
Y74D01*
X1177Y144D02*
Y185D01*
Y35D02*
Y73D01*
X1176Y144D02*
Y185D01*
Y35D02*
Y73D01*
X1176Y143D02*
Y185D01*
Y35D02*
Y75D01*
X1176Y143D02*
Y185D01*
Y35D02*
Y75D01*
X1175Y143D02*
Y185D01*
Y35D02*
Y74D01*
X1175Y143D02*
Y185D01*
Y35D02*
Y74D01*
X1175Y142D02*
Y185D01*
Y35D02*
Y75D01*
X1174Y142D02*
Y185D01*
Y35D02*
Y75D01*
X1174Y143D02*
Y185D01*
Y35D02*
Y74D01*
X1174Y143D02*
Y185D01*
Y35D02*
Y74D01*
X1174Y143D02*
Y185D01*
Y35D02*
Y75D01*
X1173Y143D02*
Y185D01*
Y35D02*
Y75D01*
X1173Y142D02*
Y185D01*
Y35D02*
Y75D01*
X1173Y142D02*
Y185D01*
Y35D02*
Y75D01*
X1172Y142D02*
Y185D01*
Y35D02*
Y76D01*
X1172Y142D02*
Y185D01*
Y35D02*
Y75D01*
X1172Y142D02*
Y185D01*
Y35D02*
Y75D01*
X1171Y142D02*
Y185D01*
Y35D02*
Y75D01*
X1171Y142D02*
Y185D01*
Y35D02*
Y75D01*
X1171Y141D02*
Y185D01*
Y84D02*
Y124D01*
Y35D02*
Y76D01*
X1171Y141D02*
Y185D01*
Y84D02*
Y124D01*
Y35D02*
Y76D01*
X1170Y141D02*
Y185D01*
Y84D02*
Y123D01*
Y35D02*
Y77D01*
X1170Y141D02*
Y185D01*
Y84D02*
Y123D01*
Y35D02*
Y77D01*
X1170Y141D02*
Y185D01*
Y84D02*
Y123D01*
Y35D02*
Y76D01*
X1169Y141D02*
Y185D01*
Y84D02*
Y123D01*
Y35D02*
Y76D01*
X1169Y141D02*
Y185D01*
Y84D02*
Y123D01*
Y35D02*
Y77D01*
X1169Y141D02*
Y185D01*
Y84D02*
Y123D01*
Y35D02*
Y77D01*
X1168Y141D02*
Y185D01*
Y85D02*
Y123D01*
Y35D02*
Y77D01*
X1168Y141D02*
Y185D01*
Y85D02*
Y123D01*
Y35D02*
Y77D01*
X1168Y140D02*
Y185D01*
Y85D02*
Y123D01*
Y35D02*
Y77D01*
X1168Y139D02*
Y185D01*
Y86D02*
Y122D01*
Y35D02*
Y78D01*
X1167Y139D02*
Y185D01*
Y86D02*
Y122D01*
Y35D02*
Y78D01*
X1167Y139D02*
Y185D01*
Y85D02*
Y121D01*
Y35D02*
Y78D01*
X1167Y139D02*
Y185D01*
Y85D02*
Y121D01*
Y35D02*
Y78D01*
X1166Y139D02*
Y185D01*
Y86D02*
Y122D01*
Y35D02*
Y78D01*
X1166Y139D02*
Y185D01*
Y86D02*
Y122D01*
Y35D02*
Y78D01*
X1166Y139D02*
Y185D01*
Y85D02*
Y121D01*
Y35D02*
Y78D01*
X1166Y139D02*
Y185D01*
Y85D02*
Y121D01*
Y35D02*
Y78D01*
X1165Y138D02*
Y185D01*
Y86D02*
Y121D01*
Y35D02*
Y78D01*
X1165Y138D02*
Y185D01*
Y86D02*
Y121D01*
Y35D02*
Y78D01*
X1165Y139D02*
Y185D01*
Y87D02*
Y122D01*
Y35D02*
Y80D01*
X1164Y139D02*
Y185D01*
Y87D02*
Y122D01*
Y35D02*
Y80D01*
X1164Y139D02*
Y185D01*
Y87D02*
Y121D01*
Y35D02*
Y79D01*
X1164Y138D02*
Y185D01*
Y86D02*
Y120D01*
Y35D02*
Y80D01*
X1163Y138D02*
Y185D01*
Y86D02*
Y120D01*
Y35D02*
Y80D01*
X1163Y139D02*
Y185D01*
Y87D02*
Y121D01*
Y35D02*
Y79D01*
X1163Y139D02*
Y185D01*
Y87D02*
Y121D01*
Y35D02*
Y79D01*
X1163Y138D02*
Y185D01*
Y88D02*
Y120D01*
Y35D02*
Y81D01*
X1162Y138D02*
Y185D01*
Y88D02*
Y120D01*
Y35D02*
Y81D01*
X1162Y138D02*
Y185D01*
Y87D02*
Y120D01*
Y35D02*
Y79D01*
X1162Y138D02*
Y185D01*
Y87D02*
Y120D01*
Y35D02*
Y79D01*
X1161Y137D02*
Y185D01*
Y87D02*
Y119D01*
Y35D02*
Y80D01*
X1161Y137D02*
Y185D01*
Y87D02*
Y119D01*
Y35D02*
Y80D01*
X1161Y137D02*
Y185D01*
Y88D02*
Y119D01*
Y35D02*
Y81D01*
X1160Y137D02*
Y185D01*
Y88D02*
Y119D01*
Y35D02*
Y81D01*
X1160Y137D02*
Y185D01*
Y87D02*
Y119D01*
Y35D02*
Y82D01*
X1160Y137D02*
Y185D01*
Y87D02*
Y119D01*
Y35D02*
Y82D01*
X1160Y136D02*
Y185D01*
Y89D02*
Y119D01*
Y35D02*
Y81D01*
X1159Y137D02*
Y185D01*
Y87D02*
Y119D01*
Y35D02*
Y81D01*
X1159Y137D02*
Y185D01*
Y87D02*
Y119D01*
Y35D02*
Y81D01*
X1159Y135D02*
Y185D01*
Y89D02*
Y118D01*
Y35D02*
Y82D01*
X1158Y135D02*
Y185D01*
Y89D02*
Y118D01*
Y35D02*
Y82D01*
X1158Y135D02*
Y185D01*
Y90D02*
Y118D01*
Y35D02*
Y81D01*
X1158Y135D02*
Y185D01*
Y90D02*
Y118D01*
Y35D02*
Y81D01*
X1157Y136D02*
Y185D01*
Y90D02*
Y117D01*
Y35D02*
Y82D01*
X1157Y136D02*
Y185D01*
Y90D02*
Y117D01*
Y35D02*
Y82D01*
X1157Y135D02*
Y185D01*
Y90D02*
Y117D01*
Y35D02*
Y83D01*
X1156Y135D02*
Y185D01*
Y90D02*
Y117D01*
Y35D02*
Y83D01*
X1156Y135D02*
Y185D01*
Y90D02*
Y117D01*
Y35D02*
Y82D01*
X1156Y135D02*
Y185D01*
Y90D02*
Y117D01*
Y35D02*
Y82D01*
X1156Y135D02*
Y185D01*
Y90D02*
Y117D01*
Y35D02*
Y83D01*
X1155Y135D02*
Y185D01*
Y90D02*
Y117D01*
Y35D02*
Y83D01*
X1155Y134D02*
Y185D01*
Y91D02*
Y117D01*
Y35D02*
Y82D01*
X1155Y134D02*
Y185D01*
Y90D02*
Y117D01*
Y35D02*
Y83D01*
X1154Y134D02*
Y185D01*
Y90D02*
Y117D01*
Y35D02*
Y83D01*
X1154Y134D02*
Y185D01*
Y91D02*
Y117D01*
Y35D02*
Y83D01*
X1154Y134D02*
Y185D01*
Y91D02*
Y117D01*
Y35D02*
Y83D01*
X1153Y134D02*
Y185D01*
Y91D02*
Y116D01*
Y35D02*
Y83D01*
X1153Y134D02*
Y185D01*
Y91D02*
Y116D01*
Y35D02*
Y83D01*
X1153Y133D02*
Y185D01*
Y90D02*
Y117D01*
Y35D02*
Y84D01*
X1153Y133D02*
Y185D01*
Y90D02*
Y117D01*
Y35D02*
Y84D01*
X1152Y134D02*
Y185D01*
Y92D02*
Y116D01*
Y35D02*
Y84D01*
X1152Y134D02*
Y185D01*
Y92D02*
Y116D01*
Y35D02*
Y84D01*
X1152Y133D02*
Y185D01*
Y92D02*
Y117D01*
Y35D02*
Y85D01*
X1151Y133D02*
Y185D01*
Y92D02*
Y117D01*
Y35D02*
Y85D01*
X1151Y132D02*
Y185D01*
Y93D02*
Y115D01*
Y35D02*
Y84D01*
X1151Y133D02*
Y185D01*
Y93D02*
Y115D01*
Y35D02*
Y85D01*
X1151Y133D02*
Y185D01*
Y93D02*
Y115D01*
Y35D02*
Y85D01*
X1150Y132D02*
Y185D01*
Y93D02*
Y115D01*
Y35D02*
Y84D01*
X1150Y132D02*
Y185D01*
Y93D02*
Y115D01*
Y35D02*
Y84D01*
X1150Y133D02*
Y185D01*
Y94D02*
Y114D01*
Y35D02*
Y85D01*
X1149Y133D02*
Y185D01*
Y94D02*
Y114D01*
Y35D02*
Y85D01*
X1149Y132D02*
Y185D01*
Y93D02*
Y115D01*
Y35D02*
Y86D01*
X1149Y132D02*
Y185D01*
Y93D02*
Y115D01*
Y35D02*
Y86D01*
X1148Y130D02*
Y185D01*
Y94D02*
Y115D01*
Y35D02*
Y86D01*
X1148Y130D02*
Y185D01*
Y94D02*
Y115D01*
Y35D02*
Y86D01*
X1148Y132D02*
Y185D01*
Y94D02*
Y114D01*
Y35D02*
Y86D01*
X1148Y132D02*
Y185D01*
Y94D02*
Y114D01*
Y35D02*
Y86D01*
X1147Y132D02*
Y185D01*
Y95D02*
Y114D01*
Y35D02*
Y86D01*
X1147Y132D02*
Y185D01*
Y95D02*
Y114D01*
Y35D02*
Y86D01*
X1147Y131D02*
Y185D01*
Y94D02*
Y113D01*
Y35D02*
Y87D01*
X1146Y130D02*
Y185D01*
Y94D02*
Y113D01*
Y35D02*
Y86D01*
X1146Y130D02*
Y185D01*
Y94D02*
Y113D01*
Y35D02*
Y86D01*
X1146Y131D02*
Y185D01*
Y95D02*
Y113D01*
Y35D02*
Y87D01*
X1145Y131D02*
Y185D01*
Y95D02*
Y113D01*
Y35D02*
Y87D01*
X1145Y130D02*
Y185D01*
Y95D02*
Y112D01*
Y35D02*
Y87D01*
X1145Y130D02*
Y185D01*
Y95D02*
Y112D01*
Y35D02*
Y87D01*
X1145Y129D02*
Y185D01*
Y95D02*
Y113D01*
Y35D02*
Y87D01*
X1144Y129D02*
Y185D01*
Y95D02*
Y113D01*
Y35D02*
Y87D01*
X1144Y130D02*
Y185D01*
Y95D02*
Y112D01*
Y35D02*
Y89D01*
X1144Y130D02*
Y185D01*
Y95D02*
Y112D01*
Y35D02*
Y89D01*
X1143Y130D02*
Y185D01*
Y96D02*
Y112D01*
Y35D02*
Y87D01*
X1143Y130D02*
Y185D01*
Y96D02*
Y112D01*
Y35D02*
Y87D01*
X1143Y130D02*
Y185D01*
Y95D02*
Y112D01*
Y35D02*
Y88D01*
X1142Y130D02*
Y185D01*
Y95D02*
Y112D01*
Y35D02*
Y88D01*
X1142Y130D02*
Y185D01*
Y96D02*
Y112D01*
Y35D02*
Y88D01*
X1142Y130D02*
Y185D01*
Y96D02*
Y112D01*
Y35D02*
Y90D01*
X1141Y130D02*
Y185D01*
Y96D02*
Y112D01*
Y35D02*
Y90D01*
X1141Y129D02*
Y185D01*
Y97D02*
Y112D01*
Y35D02*
Y88D01*
X1141Y129D02*
Y185D01*
Y97D02*
Y112D01*
Y35D02*
Y88D01*
X1141Y128D02*
Y185D01*
Y96D02*
Y111D01*
Y35D02*
Y90D01*
X1140Y128D02*
Y185D01*
Y96D02*
Y111D01*
Y35D02*
Y90D01*
X1140Y128D02*
Y185D01*
Y97D02*
Y110D01*
Y35D02*
Y90D01*
X1140Y128D02*
Y185D01*
Y97D02*
Y110D01*
Y35D02*
Y90D01*
X1139Y128D02*
Y185D01*
Y97D02*
Y110D01*
Y35D02*
Y90D01*
X1139Y128D02*
Y185D01*
Y97D02*
Y110D01*
Y35D02*
Y90D01*
X1139Y128D02*
Y185D01*
Y98D02*
Y111D01*
Y35D02*
Y90D01*
X1138Y128D02*
Y185D01*
Y98D02*
Y111D01*
Y35D02*
Y90D01*
X1138Y128D02*
Y185D01*
Y98D02*
Y110D01*
Y35D02*
Y90D01*
X1138Y128D02*
Y185D01*
Y98D02*
Y110D01*
Y35D02*
Y90D01*
X1138Y126D02*
Y185D01*
Y99D02*
Y110D01*
Y35D02*
Y90D01*
X1137Y127D02*
Y185D01*
Y98D02*
Y109D01*
Y35D02*
Y90D01*
X1137Y127D02*
Y185D01*
Y98D02*
Y109D01*
Y35D02*
Y90D01*
X1137Y126D02*
Y185D01*
Y99D02*
Y110D01*
Y35D02*
Y90D01*
X1136Y126D02*
Y185D01*
Y99D02*
Y110D01*
Y35D02*
Y90D01*
X1136Y126D02*
Y185D01*
Y99D02*
Y109D01*
Y35D02*
Y91D01*
X1136Y126D02*
Y185D01*
Y99D02*
Y109D01*
Y35D02*
Y91D01*
X1135Y126D02*
Y185D01*
Y99D02*
Y109D01*
Y35D02*
Y91D01*
X1135Y126D02*
Y185D01*
Y99D02*
Y109D01*
Y35D02*
Y91D01*
X1135Y126D02*
Y185D01*
Y99D02*
Y108D01*
Y35D02*
Y92D01*
X1135Y126D02*
Y185D01*
Y99D02*
Y108D01*
Y35D02*
Y92D01*
X1134Y125D02*
Y185D01*
Y100D02*
Y108D01*
Y35D02*
Y91D01*
X1134Y125D02*
Y185D01*
Y100D02*
Y108D01*
Y35D02*
Y91D01*
X1134Y126D02*
Y185D01*
Y100D02*
Y108D01*
Y35D02*
Y92D01*
X1133Y126D02*
Y185D01*
Y100D02*
Y108D01*
Y35D02*
Y92D01*
X1133Y126D02*
Y185D01*
Y100D02*
Y108D01*
Y35D02*
Y92D01*
X1133Y125D02*
Y185D01*
Y100D02*
Y108D01*
Y35D02*
Y92D01*
X1133Y125D02*
Y185D01*
Y100D02*
Y108D01*
Y35D02*
Y92D01*
X1132Y125D02*
Y185D01*
Y101D02*
Y108D01*
Y35D02*
Y94D01*
X1132Y125D02*
Y185D01*
Y101D02*
Y108D01*
Y35D02*
Y94D01*
X1132Y125D02*
Y185D01*
Y100D02*
Y108D01*
Y35D02*
Y93D01*
X1131Y125D02*
Y185D01*
Y100D02*
Y108D01*
Y35D02*
Y93D01*
X1131Y125D02*
Y185D01*
Y101D02*
Y107D01*
Y35D02*
Y95D01*
X1131Y125D02*
Y185D01*
Y101D02*
Y107D01*
Y35D02*
Y95D01*
X1130Y124D02*
Y185D01*
Y100D02*
Y106D01*
Y35D02*
Y95D01*
X1130Y124D02*
Y185D01*
Y100D02*
Y106D01*
Y35D02*
Y95D01*
X1130Y124D02*
Y185D01*
Y100D02*
Y107D01*
Y35D02*
Y94D01*
X1130Y124D02*
Y185D01*
Y100D02*
Y107D01*
Y35D02*
Y94D01*
X1129Y124D02*
Y185D01*
Y102D02*
Y106D01*
Y35D02*
Y95D01*
X1129Y124D02*
Y185D01*
Y101D02*
Y106D01*
Y35D02*
Y94D01*
X1129Y124D02*
Y185D01*
Y101D02*
Y106D01*
Y35D02*
Y94D01*
X1128Y121D02*
Y185D01*
Y102D02*
Y107D01*
Y35D02*
Y95D01*
X1128Y121D02*
Y185D01*
Y102D02*
Y107D01*
Y35D02*
Y95D01*
X1128Y124D02*
Y185D01*
Y101D02*
Y105D01*
Y35D02*
Y95D01*
X1127Y124D02*
Y185D01*
Y101D02*
Y105D01*
Y35D02*
Y95D01*
X1127Y123D02*
Y185D01*
Y102D02*
Y106D01*
Y35D02*
Y95D01*
X1127Y123D02*
Y185D01*
Y102D02*
Y106D01*
Y35D02*
Y95D01*
X1127Y123D02*
Y185D01*
Y103D02*
Y105D01*
Y35D02*
Y95D01*
X1126Y123D02*
Y185D01*
Y103D02*
Y105D01*
Y35D02*
Y95D01*
X1126Y123D02*
Y185D01*
Y103D02*
Y106D01*
Y35D02*
Y95D01*
X1126Y123D02*
Y185D01*
Y103D02*
Y106D01*
Y35D02*
Y95D01*
X1125Y122D02*
Y185D01*
Y103D02*
Y106D01*
Y35D02*
Y95D01*
X1125Y122D02*
Y185D01*
Y103D02*
Y106D01*
Y35D02*
Y95D01*
X1125Y123D02*
Y185D01*
Y35D02*
Y96D01*
X1124Y121D02*
Y185D01*
Y35D02*
Y96D01*
X1124Y121D02*
Y185D01*
Y35D02*
Y96D01*
X1124Y122D02*
Y185D01*
Y35D02*
Y96D01*
X1123Y122D02*
Y185D01*
Y35D02*
Y96D01*
X1123Y121D02*
Y185D01*
Y35D02*
Y96D01*
X1123Y121D02*
Y185D01*
Y35D02*
Y96D01*
X1123Y121D02*
Y185D01*
Y35D02*
Y97D01*
X1122Y121D02*
Y185D01*
Y35D02*
Y97D01*
X1122Y120D02*
Y185D01*
Y35D02*
Y97D01*
X1122Y120D02*
Y185D01*
Y35D02*
Y97D01*
X1121Y120D02*
Y185D01*
Y35D02*
Y97D01*
X1121Y120D02*
Y185D01*
Y35D02*
Y97D01*
X1121Y121D02*
Y185D01*
Y35D02*
Y99D01*
X1120Y121D02*
Y185D01*
Y35D02*
Y99D01*
X1120Y120D02*
Y185D01*
Y35D02*
Y98D01*
X1120Y120D02*
Y185D01*
Y35D02*
Y99D01*
X1120Y120D02*
Y185D01*
Y35D02*
Y99D01*
X1119Y119D02*
Y185D01*
Y35D02*
Y98D01*
X1119Y119D02*
Y185D01*
Y35D02*
Y98D01*
X1119Y119D02*
Y185D01*
Y35D02*
Y99D01*
X1118Y119D02*
Y185D01*
Y35D02*
Y99D01*
X1118Y120D02*
Y185D01*
Y35D02*
Y99D01*
X1118Y120D02*
Y185D01*
Y35D02*
Y99D01*
X1117Y119D02*
Y185D01*
Y35D02*
Y100D01*
X1117Y119D02*
Y185D01*
Y35D02*
Y100D01*
X1117Y119D02*
Y185D01*
Y35D02*
Y100D01*
X1117Y119D02*
Y185D01*
Y35D02*
Y100D01*
X1116Y119D02*
Y185D01*
Y35D02*
Y99D01*
X1116Y119D02*
Y185D01*
Y35D02*
Y101D01*
X1116Y119D02*
Y185D01*
Y35D02*
Y101D01*
X1115Y118D02*
Y185D01*
Y35D02*
Y100D01*
X1115Y118D02*
Y185D01*
Y35D02*
Y100D01*
X1115Y118D02*
Y185D01*
Y35D02*
Y100D01*
X1115Y118D02*
Y185D01*
Y35D02*
Y100D01*
X1114Y117D02*
Y185D01*
Y35D02*
Y100D01*
X1114Y117D02*
Y185D01*
Y35D02*
Y100D01*
X1114Y117D02*
Y185D01*
Y35D02*
Y100D01*
X1113Y117D02*
Y185D01*
Y35D02*
Y100D01*
X1113Y117D02*
Y185D01*
Y35D02*
Y101D01*
X1113Y117D02*
Y185D01*
Y35D02*
Y101D01*
X1112Y116D02*
Y185D01*
Y35D02*
Y101D01*
X1112Y116D02*
Y185D01*
Y35D02*
Y101D01*
X1112Y117D02*
Y185D01*
Y35D02*
Y102D01*
X1112Y117D02*
Y185D01*
Y35D02*
Y101D01*
X1111Y117D02*
Y185D01*
Y35D02*
Y101D01*
X1111Y117D02*
Y185D01*
Y35D02*
Y102D01*
X1111Y117D02*
Y185D01*
Y35D02*
Y102D01*
X1110Y116D02*
Y185D01*
Y35D02*
Y102D01*
X1110Y116D02*
Y185D01*
Y35D02*
Y102D01*
X1110Y115D02*
Y185D01*
Y35D02*
Y102D01*
X1109Y115D02*
Y185D01*
Y35D02*
Y102D01*
X1109Y116D02*
Y185D01*
Y35D02*
Y102D01*
X1109Y116D02*
Y185D01*
Y35D02*
Y102D01*
X1109Y115D02*
Y185D01*
Y35D02*
Y103D01*
X1108Y115D02*
Y185D01*
Y35D02*
Y103D01*
X1108Y115D02*
Y185D01*
Y35D02*
Y103D01*
X1108Y115D02*
Y185D01*
Y35D02*
Y103D01*
X1107Y115D02*
Y185D01*
Y35D02*
Y103D01*
X1107Y115D02*
Y185D01*
Y35D02*
Y103D01*
X1107Y115D02*
Y185D01*
Y35D02*
Y103D01*
X1106Y115D02*
Y185D01*
Y35D02*
Y105D01*
X1106Y115D02*
Y185D01*
Y35D02*
Y105D01*
X1106Y114D02*
Y185D01*
Y35D02*
Y103D01*
X1105Y114D02*
Y185D01*
Y35D02*
Y103D01*
X1105Y113D02*
Y185D01*
Y35D02*
Y105D01*
X1105Y113D02*
Y185D01*
Y35D02*
Y105D01*
X1105Y113D02*
Y185D01*
Y35D02*
Y104D01*
X1104Y113D02*
Y185D01*
Y35D02*
Y104D01*
X1104Y114D02*
Y185D01*
Y35D02*
Y105D01*
X1104Y114D02*
Y185D01*
Y35D02*
Y105D01*
X1103Y112D02*
Y185D01*
Y35D02*
Y105D01*
X1103Y112D02*
Y185D01*
Y35D02*
Y105D01*
X1103Y113D02*
Y185D01*
Y35D02*
Y105D01*
X1102Y112D02*
Y185D01*
Y35D02*
Y106D01*
X1102Y112D02*
Y185D01*
Y35D02*
Y106D01*
X1102Y113D02*
Y185D01*
Y35D02*
Y108D01*
X1102Y113D02*
Y185D01*
Y35D02*
Y108D01*
X1101Y112D02*
Y185D01*
Y35D02*
Y106D01*
X1101Y112D02*
Y185D01*
Y35D02*
Y106D01*
X1101Y112D02*
Y185D01*
Y35D02*
Y106D01*
X1100Y112D02*
Y185D01*
Y35D02*
Y106D01*
X1100Y112D02*
Y185D01*
Y35D02*
Y107D01*
X1100Y112D02*
Y185D01*
Y35D02*
Y107D01*
X1099Y111D02*
Y185D01*
Y35D02*
Y108D01*
X1099Y111D02*
Y185D01*
Y35D02*
Y108D01*
X1099Y112D02*
Y185D01*
Y35D02*
Y107D01*
X1099Y112D02*
Y185D01*
Y35D02*
Y108D01*
X1098Y112D02*
Y185D01*
Y35D02*
Y108D01*
X1098Y112D02*
Y185D01*
Y35D02*
Y110D01*
X1098Y112D02*
Y185D01*
Y35D02*
Y110D01*
X1097Y111D02*
Y185D01*
Y35D02*
Y108D01*
X1097Y111D02*
Y185D01*
Y35D02*
Y108D01*
X1097Y35D02*
Y185D01*
X1097Y35D02*
Y185D01*
X1096Y35D02*
Y185D01*
X1096Y35D02*
Y185D01*
X1096Y35D02*
Y185D01*
X1095Y35D02*
Y185D01*
X1095Y35D02*
Y185D01*
X1095Y35D02*
Y185D01*
X1094Y35D02*
Y185D01*
X1094Y35D02*
Y185D01*
X1094Y35D02*
Y185D01*
X1094Y35D02*
Y185D01*
X1093Y35D02*
Y185D01*
X1093Y35D02*
Y185D01*
X1093Y35D02*
Y185D01*
X1092Y35D02*
Y185D01*
X1092Y35D02*
Y185D01*
X1092Y35D02*
Y185D01*
X1091Y35D02*
Y185D01*
X1091Y35D02*
Y185D01*
X1091Y35D02*
Y185D01*
X1090Y35D02*
Y185D01*
X1090Y35D02*
Y185D01*
X1090Y35D02*
Y185D01*
X1090Y35D02*
Y185D01*
X1089Y35D02*
Y185D01*
X1089Y35D02*
Y185D01*
X1089Y35D02*
Y185D01*
X1088Y35D02*
Y185D01*
X1088Y35D02*
Y185D01*
X1088Y35D02*
Y185D01*
X1087Y35D02*
Y185D01*
X1087Y35D02*
Y185D01*
X1087Y35D02*
Y185D01*
X1087Y35D02*
Y185D01*
X1086Y35D02*
Y185D01*
X1086Y35D02*
Y185D01*
X1086Y35D02*
Y185D01*
X1085Y35D02*
Y185D01*
X1085Y35D02*
Y185D01*
X1085Y35D02*
Y185D01*
X1084Y35D02*
Y185D01*
X1084Y35D02*
Y185D01*
X1084Y35D02*
Y185D01*
X1084Y35D02*
Y185D01*
D21*
X1110Y715D02*
Y730D01*
X1095Y715D02*
Y730D01*
X1080Y715D02*
Y730D01*
D22*
X1175Y712D02*
D03*
M02*
